<?xml version="1.0" encoding="UTF-8" standalone="no" ?>
<!DOCTYPE svg PUBLIC "-//W3C//DTD SVG 1.1//EN" "http://www.w3.org/Graphics/SVG/1.1/DTD/svg11.dtd">
<svg xmlns="http://www.w3.org/2000/svg" xmlns:xlink="http://www.w3.org/1999/xlink" version="1.1" width="1080" height="1080" viewBox="0 0 1080 1080" xml:space="preserve">
<desc>Created with Fabric.js 5.2.4</desc>
<defs>
</defs>
<g transform="matrix(1 0 0 1 540 540)" id="dc9b89a3-846f-4c7a-b5af-04df1649018a"  >
<rect style="stroke: none; stroke-width: 1; stroke-dasharray: none; stroke-linecap: butt; stroke-dashoffset: 0; stroke-linejoin: miter; stroke-miterlimit: 4; fill: rgb(255,255,255); fill-rule: nonzero; opacity: 1; visibility: hidden;" vector-effect="non-scaling-stroke"  x="-540" y="-540" rx="0" ry="0" width="1080" height="1080" />
</g>
<g transform="matrix(1 0 0 1 540 540)" id="26bcda3d-567d-422a-8388-595137df80b8"  >
</g>
<g transform="matrix(45 0 0 45 540 540)"  >
<path style="stroke: none; stroke-width: 1; stroke-dasharray: none; stroke-linecap: butt; stroke-dashoffset: 0; stroke-linejoin: miter; stroke-miterlimit: 4; fill: rgb(255,255,255); fill-rule: nonzero; opacity: 1;"  transform=" translate(-12, -12.5)" d="M 22.46 6 C 21.69 6.35 20.86 6.58 20 6.69 C 20.88 6.16 21.56 5.32 21.88 4.31 C 21.05 4.81 20.13 5.16 19.16 5.36 C 18.37 4.5 17.26 4 16 4 C 13.65 4 11.73 5.92 11.73 8.29 C 11.73 8.63 11.77 8.96 11.84 9.27 C 8.28 9.09 5.11 7.38 3 4.79 C 2.63 5.42 2.42 6.16 2.42 6.94 C 2.42 8.43 3.17 9.75 4.33 10.5 C 3.62 10.5 2.96 10.3 2.38 10 C 2.38 10 2.38 10 2.38 10.03 C 2.38 12.11 3.86 13.85 5.82 14.24 C 5.46 14.34 5.08 14.39 4.69 14.39 C 4.42 14.39 4.15 14.36 3.89 14.31 C 4.43 16 6 17.26 7.89 17.29 C 6.43 18.45 4.58 19.13 2.56 19.13 C 2.22 19.13 1.88 19.11 1.54 19.07 C 3.44 20.29 5.7 21 8.12 21 C 16 21 20.33 14.46 20.33 8.79 C 20.33 8.6 20.33 8.42 20.32 8.23 C 21.16 7.63 21.88 6.87 22.46 6 Z" stroke-linecap="round" />
</g>
</svg>